<mxfile host="app.diagrams.net" modified="2024-06-18T18:02:49.481Z" agent="Mozilla/5.0 (X11; Ubuntu; Linux x86_64; rv:127.0) Gecko/20100101 Firefox/127.0" etag="CIx1TukcZ5vaG5Ukwldl" version="24.5.5" type="device">
  <diagram name="Page-1" id="Rimp2zpISgOTOLZ1Iv0c">
    <mxGraphModel dx="1380" dy="1905" grid="1" gridSize="10" guides="1" tooltips="1" connect="1" arrows="1" fold="1" page="1" pageScale="1" pageWidth="850" pageHeight="1100" math="0" shadow="0">
      <root>
        <mxCell id="0" />
        <mxCell id="1" parent="0" />
        <mxCell id="grNF4WicxqC2OC6nEpBV-14" value="" style="group;strokeColor=default;" parent="1" vertex="1" connectable="0">
          <mxGeometry x="190" y="-630" width="179" height="120" as="geometry" />
        </mxCell>
        <mxCell id="2" value="User Queries in UI Dashboard" style="whiteSpace=wrap;strokeWidth=2;fontStyle=1" parent="grNF4WicxqC2OC6nEpBV-14" vertex="1">
          <mxGeometry y="86" width="179" height="34" as="geometry" />
        </mxCell>
        <mxCell id="grNF4WicxqC2OC6nEpBV-12" value="" style="image;html=1;image=img/lib/clip_art/people/Suit_Man_128x128.png" parent="grNF4WicxqC2OC6nEpBV-14" vertex="1">
          <mxGeometry x="9.999563318777298" width="62.53275109170306" height="80" as="geometry" />
        </mxCell>
        <mxCell id="grNF4WicxqC2OC6nEpBV-15" value="" style="verticalLabelPosition=bottom;sketch=0;aspect=fixed;html=1;verticalAlign=top;strokeColor=none;align=center;outlineConnect=0;shape=mxgraph.citrix.laptop_2;" parent="grNF4WicxqC2OC6nEpBV-14" vertex="1">
          <mxGeometry x="72.53" y="8.38" width="84.82" height="63.25" as="geometry" />
        </mxCell>
        <mxCell id="grNF4WicxqC2OC6nEpBV-39" style="edgeStyle=orthogonalEdgeStyle;rounded=0;orthogonalLoop=1;jettySize=auto;html=1;entryX=1;entryY=0.25;entryDx=0;entryDy=0;exitX=0.5;exitY=1;exitDx=0;exitDy=0;" parent="1" source="grNF4WicxqC2OC6nEpBV-32" target="2" edge="1">
          <mxGeometry relative="1" as="geometry">
            <Array as="points">
              <mxPoint x="1030" y="-290" />
              <mxPoint x="490" y="-290" />
              <mxPoint x="490" y="-540" />
              <mxPoint x="369" y="-540" />
            </Array>
          </mxGeometry>
        </mxCell>
        <mxCell id="grNF4WicxqC2OC6nEpBV-41" value="&lt;div&gt;Request&lt;/div&gt;" style="text;html=1;align=center;verticalAlign=middle;resizable=0;points=[];autosize=1;strokeColor=none;fillColor=none;" parent="1" vertex="1">
          <mxGeometry x="540" y="-932" width="70" height="30" as="geometry" />
        </mxCell>
        <mxCell id="grNF4WicxqC2OC6nEpBV-42" value="&lt;div&gt;Response&lt;/div&gt;" style="text;html=1;align=center;verticalAlign=middle;resizable=0;points=[];autosize=1;strokeColor=none;fillColor=none;" parent="1" vertex="1">
          <mxGeometry x="540" y="-321" width="80" height="30" as="geometry" />
        </mxCell>
        <mxCell id="grNF4WicxqC2OC6nEpBV-43" value="UI/ POSTMAN" style="text;html=1;align=center;verticalAlign=middle;resizable=0;points=[];autosize=1;strokeColor=default;fillColor=none;fontStyle=1" parent="1" vertex="1">
          <mxGeometry x="190" y="-660" width="100" height="30" as="geometry" />
        </mxCell>
        <mxCell id="grNF4WicxqC2OC6nEpBV-27" style="edgeStyle=orthogonalEdgeStyle;rounded=0;orthogonalLoop=1;jettySize=auto;html=1;entryX=0.5;entryY=0;entryDx=0;entryDy=0;" parent="1" source="grNF4WicxqC2OC6nEpBV-25" edge="1">
          <mxGeometry relative="1" as="geometry">
            <mxPoint x="875" y="-671.1557894736843" as="targetPoint" />
          </mxGeometry>
        </mxCell>
        <mxCell id="grNF4WicxqC2OC6nEpBV-38" style="edgeStyle=orthogonalEdgeStyle;rounded=0;orthogonalLoop=1;jettySize=auto;html=1;startArrow=classic;startFill=1;endArrow=none;endFill=0;" parent="1" source="grNF4WicxqC2OC6nEpBV-25" edge="1">
          <mxGeometry relative="1" as="geometry">
            <mxPoint x="370" y="-610" as="targetPoint" />
            <Array as="points">
              <mxPoint x="1018" y="-908" />
              <mxPoint x="490" y="-908" />
              <mxPoint x="490" y="-610" />
            </Array>
          </mxGeometry>
        </mxCell>
        <mxCell id="grNF4WicxqC2OC6nEpBV-25" value="Is system in offline mode&lt;br&gt;or is Public API down" style="rhombus;whiteSpace=wrap;html=1;" parent="1" vertex="1">
          <mxGeometry x="925" y="-859.9978947368421" width="185" height="147.78947368421052" as="geometry" />
        </mxCell>
        <mxCell id="grNF4WicxqC2OC6nEpBV-28" value="No" style="text;html=1;align=center;verticalAlign=middle;resizable=0;points=[];autosize=1;strokeColor=none;fillColor=none;" parent="1" vertex="1">
          <mxGeometry x="885" y="-821.682105263158" width="40" height="30" as="geometry" />
        </mxCell>
        <mxCell id="grNF4WicxqC2OC6nEpBV-30" style="edgeStyle=orthogonalEdgeStyle;rounded=0;orthogonalLoop=1;jettySize=auto;html=1;entryX=0.5;entryY=0;entryDx=0;entryDy=0;" parent="1" source="grNF4WicxqC2OC6nEpBV-25" target="4Jmvh-th-rgxCoRMoa_L-16" edge="1">
          <mxGeometry relative="1" as="geometry">
            <mxPoint x="1165" y="-681.6542105263158" as="targetPoint" />
          </mxGeometry>
        </mxCell>
        <mxCell id="grNF4WicxqC2OC6nEpBV-40" value="Yes" style="text;html=1;align=center;verticalAlign=middle;resizable=0;points=[];autosize=1;strokeColor=none;fillColor=none;" parent="1" vertex="1">
          <mxGeometry x="1110" y="-821.6832" width="40" height="30" as="geometry" />
        </mxCell>
        <mxCell id="4Jmvh-th-rgxCoRMoa_L-11" style="edgeStyle=orthogonalEdgeStyle;rounded=0;orthogonalLoop=1;jettySize=auto;html=1;entryX=1;entryY=0.5;entryDx=0;entryDy=0;" edge="1" parent="1" source="4Jmvh-th-rgxCoRMoa_L-2" target="4Jmvh-th-rgxCoRMoa_L-16">
          <mxGeometry relative="1" as="geometry">
            <mxPoint x="849.9999999999905" y="-657.6557894736843" as="targetPoint" />
            <Array as="points">
              <mxPoint x="1310" y="-648" />
            </Array>
          </mxGeometry>
        </mxCell>
        <mxCell id="4Jmvh-th-rgxCoRMoa_L-2" value="" style="verticalLabelPosition=bottom;html=1;verticalAlign=top;align=center;strokeColor=none;fillColor=#00BEF2;shape=mxgraph.azure.scheduler;pointerEvents=1;" vertex="1" parent="1">
          <mxGeometry x="1290" y="-780" width="40" height="50" as="geometry" />
        </mxCell>
        <mxCell id="4Jmvh-th-rgxCoRMoa_L-10" value="Fill cache with keyword and article list" style="text;html=1;align=center;verticalAlign=middle;resizable=0;points=[];autosize=1;strokeColor=none;fillColor=none;" vertex="1" parent="1">
          <mxGeometry x="907.5" y="-700" width="220" height="30" as="geometry" />
        </mxCell>
        <mxCell id="4Jmvh-th-rgxCoRMoa_L-12" value="Fill cache with Breaking news&lt;br&gt;&lt;div&gt;every &quot;cacheduration&quot; times &lt;br&gt;&lt;/div&gt;&lt;div&gt;defined in properties&lt;/div&gt;" style="text;html=1;align=center;verticalAlign=middle;resizable=0;points=[];autosize=1;strokeColor=none;fillColor=none;" vertex="1" parent="1">
          <mxGeometry x="1210" y="-640" width="180" height="60" as="geometry" />
        </mxCell>
        <mxCell id="grNF4WicxqC2OC6nEpBV-32" value="Response massaging based on interval" style="rounded=1;whiteSpace=wrap;html=1;verticalAlign=top;labelBackgroundColor=default;shadow=0;dashed=0;spacingTop=3;" parent="1" vertex="1">
          <mxGeometry x="970" y="-370" width="120" height="49" as="geometry" />
        </mxCell>
        <mxCell id="4Jmvh-th-rgxCoRMoa_L-21" style="edgeStyle=orthogonalEdgeStyle;rounded=0;orthogonalLoop=1;jettySize=auto;html=1;entryX=0.75;entryY=0;entryDx=0;entryDy=0;" edge="1" parent="1" source="4Jmvh-th-rgxCoRMoa_L-14" target="grNF4WicxqC2OC6nEpBV-32">
          <mxGeometry relative="1" as="geometry">
            <Array as="points">
              <mxPoint x="1150" y="-490" />
              <mxPoint x="1150" y="-411" />
              <mxPoint x="1060" y="-411" />
            </Array>
          </mxGeometry>
        </mxCell>
        <mxCell id="4Jmvh-th-rgxCoRMoa_L-23" style="edgeStyle=orthogonalEdgeStyle;rounded=0;orthogonalLoop=1;jettySize=auto;html=1;entryX=0.25;entryY=0;entryDx=0;entryDy=0;" edge="1" parent="1" source="4Jmvh-th-rgxCoRMoa_L-14" target="grNF4WicxqC2OC6nEpBV-32">
          <mxGeometry relative="1" as="geometry">
            <Array as="points">
              <mxPoint x="900" y="-490" />
              <mxPoint x="900" y="-411" />
              <mxPoint x="1000" y="-411" />
            </Array>
          </mxGeometry>
        </mxCell>
        <mxCell id="4Jmvh-th-rgxCoRMoa_L-24" value="&lt;div&gt;No&lt;/div&gt;" style="edgeLabel;html=1;align=center;verticalAlign=middle;resizable=0;points=[];" vertex="1" connectable="0" parent="4Jmvh-th-rgxCoRMoa_L-23">
          <mxGeometry x="-0.866" y="-7" relative="1" as="geometry">
            <mxPoint x="-2" y="-7" as="offset" />
          </mxGeometry>
        </mxCell>
        <mxCell id="4Jmvh-th-rgxCoRMoa_L-14" value="Are Articles found" style="rhombus;whiteSpace=wrap;html=1;" vertex="1" parent="1">
          <mxGeometry x="940" y="-540" width="145" height="100" as="geometry" />
        </mxCell>
        <mxCell id="grNF4WicxqC2OC6nEpBV-35" style="edgeStyle=orthogonalEdgeStyle;rounded=0;orthogonalLoop=1;jettySize=auto;html=1;entryX=0.5;entryY=0;entryDx=0;entryDy=0;exitX=0.5;exitY=1;exitDx=0;exitDy=0;" parent="1" source="4Jmvh-th-rgxCoRMoa_L-16" target="4Jmvh-th-rgxCoRMoa_L-14" edge="1">
          <mxGeometry relative="1" as="geometry">
            <mxPoint x="1140" y="-657.75" as="sourcePoint" />
            <mxPoint x="980" y="-580" as="targetPoint" />
            <Array as="points">
              <mxPoint x="1165" y="-600" />
              <mxPoint x="1013" y="-600" />
            </Array>
          </mxGeometry>
        </mxCell>
        <mxCell id="4Jmvh-th-rgxCoRMoa_L-18" style="edgeStyle=orthogonalEdgeStyle;rounded=0;orthogonalLoop=1;jettySize=auto;html=1;entryX=0;entryY=0.25;entryDx=0;entryDy=0;exitX=0.9;exitY=0.2;exitDx=0;exitDy=0;exitPerimeter=0;" edge="1" parent="1" source="4Jmvh-th-rgxCoRMoa_L-15" target="4Jmvh-th-rgxCoRMoa_L-16">
          <mxGeometry relative="1" as="geometry">
            <Array as="points">
              <mxPoint x="875" y="-660" />
              <mxPoint x="875" y="-672" />
            </Array>
          </mxGeometry>
        </mxCell>
        <mxCell id="4Jmvh-th-rgxCoRMoa_L-20" style="edgeStyle=orthogonalEdgeStyle;rounded=0;orthogonalLoop=1;jettySize=auto;html=1;" edge="1" parent="1" source="4Jmvh-th-rgxCoRMoa_L-15" target="4Jmvh-th-rgxCoRMoa_L-14">
          <mxGeometry relative="1" as="geometry">
            <Array as="points">
              <mxPoint x="875" y="-600" />
              <mxPoint x="1013" y="-600" />
            </Array>
          </mxGeometry>
        </mxCell>
        <mxCell id="4Jmvh-th-rgxCoRMoa_L-15" value="&lt;div&gt;Everything API&lt;/div&gt;" style="aspect=fixed;sketch=0;html=1;dashed=0;whitespace=wrap;verticalLabelPosition=bottom;verticalAlign=top;fillColor=#2875E2;strokeColor=#ffffff;points=[[0.005,0.63,0],[0.1,0.2,0],[0.9,0.2,0],[0.5,0,0],[0.995,0.63,0],[0.72,0.99,0],[0.5,1,0],[0.28,0.99,0]];shape=mxgraph.kubernetes.icon2;kubernetesLabel=1;prIcon=api" vertex="1" parent="1">
          <mxGeometry x="850" y="-670.0042105263158" width="50" height="48" as="geometry" />
        </mxCell>
        <mxCell id="4Jmvh-th-rgxCoRMoa_L-16" value="Cache" style="image;aspect=fixed;perimeter=ellipsePerimeter;html=1;align=center;shadow=0;dashed=0;spacingTop=3;image=img/lib/active_directory/hard_disk.svg;" vertex="1" parent="1">
          <mxGeometry x="1140" y="-661.9957894736842" width="50" height="27" as="geometry" />
        </mxCell>
        <mxCell id="4Jmvh-th-rgxCoRMoa_L-22" value="&lt;div&gt;Yes&lt;/div&gt;" style="text;html=1;align=center;verticalAlign=middle;resizable=0;points=[];autosize=1;strokeColor=none;fillColor=none;" vertex="1" parent="1">
          <mxGeometry x="1080" y="-515" width="40" height="30" as="geometry" />
        </mxCell>
        <mxCell id="4Jmvh-th-rgxCoRMoa_L-26" value="Cache" style="image;aspect=fixed;perimeter=ellipsePerimeter;html=1;align=center;shadow=0;dashed=0;spacingTop=3;image=img/lib/active_directory/hard_disk.svg;" vertex="1" parent="1">
          <mxGeometry x="875" y="-459.9957894736842" width="50" height="27" as="geometry" />
        </mxCell>
        <mxCell id="4Jmvh-th-rgxCoRMoa_L-27" value="&lt;div&gt;Fetch&amp;nbsp;&lt;/div&gt;&lt;div&gt;Breaking news&amp;nbsp;&lt;/div&gt;&lt;div&gt;from cache&lt;/div&gt;" style="text;html=1;align=center;verticalAlign=middle;resizable=0;points=[];autosize=1;strokeColor=none;fillColor=none;" vertex="1" parent="1">
          <mxGeometry x="775" y="-476.5" width="110" height="60" as="geometry" />
        </mxCell>
        <mxCell id="4Jmvh-th-rgxCoRMoa_L-28" value="" style="group" vertex="1" connectable="0" parent="1">
          <mxGeometry x="690" y="-990" width="760" height="824.18" as="geometry" />
        </mxCell>
        <mxCell id="grNF4WicxqC2OC6nEpBV-18" value="" style="group;strokeColor=default;container=0;" parent="4Jmvh-th-rgxCoRMoa_L-28" vertex="1" connectable="0">
          <mxGeometry y="30" width="760" height="794.18" as="geometry" />
        </mxCell>
        <mxCell id="grNF4WicxqC2OC6nEpBV-44" value="&lt;div&gt;SERVER&lt;/div&gt;" style="text;html=1;align=center;verticalAlign=middle;resizable=0;points=[];autosize=1;strokeColor=default;fillColor=none;fontStyle=1" parent="4Jmvh-th-rgxCoRMoa_L-28" vertex="1">
          <mxGeometry width="70" height="30" as="geometry" />
        </mxCell>
        <mxCell id="grNF4WicxqC2OC6nEpBV-17" value="Server processes the request and returns news articles grouped into requested interval buckets" style="whiteSpace=wrap;strokeWidth=2;fontStyle=1" parent="4Jmvh-th-rgxCoRMoa_L-28" vertex="1">
          <mxGeometry y="744.76" width="760" height="79.42" as="geometry" />
        </mxCell>
      </root>
    </mxGraphModel>
  </diagram>
</mxfile>
